<svg width="594" height="278" viewBox="0 0 594 278" fill="none" xmlns="http://www.w3.org/2000/svg">
<rect opacity="0.7" x="0.5" y="63.5" width="588.987" height="214" rx="4.5" fill="white" stroke="#E6DFF5"/>
<path d="M529.127 89.3203H568.01V110.613C568.01 124.191 566.312 135.867 562.918 145.639C559.626 155.411 553.969 165.492 545.945 175.881L530.979 164C534.785 158.445 537.562 153.662 539.311 149.65C541.162 145.536 542.911 140.135 544.557 133.449H529.127V89.3203ZM466.174 89.3203H505.057V110.613C505.057 124.191 503.359 135.867 499.965 145.639C496.673 155.411 491.067 165.492 483.146 175.881L468.025 164C471.831 158.445 474.609 153.662 476.357 149.65C478.209 145.536 480.009 140.135 481.758 133.449H466.174V89.3203Z" fill="#F7F2FF"/>
</svg>
