<svg width="34" height="34" viewBox="0 0 34 34" fill="none" xmlns="http://www.w3.org/2000/svg">
<circle cx="17" cy="17" r="17" fill="#3B1788"/>
<path d="M16.9485 13.0078C14.5499 13.0078 12.5625 14.9609 12.5625 17.3938C12.5625 19.8267 14.5156 21.7798 16.9485 21.7798C19.3813 21.7798 21.3345 19.7924 21.3345 17.3938C21.3345 14.9952 19.3471 13.0078 16.9485 13.0078ZM16.9485 20.2036C15.4065 20.2036 14.1387 18.9358 14.1387 17.3938C14.1387 15.8519 15.4065 14.584 16.9485 14.584C18.4904 14.584 19.7583 15.8519 19.7583 17.3938C19.7583 18.9358 18.4904 20.2036 16.9485 20.2036Z" fill="white"/>
<path d="M21.5059 13.8976C22.0547 13.8976 22.4996 13.4527 22.4996 12.9039C22.4996 12.3551 22.0547 11.9102 21.5059 11.9102C20.9571 11.9102 20.5122 12.3551 20.5122 12.9039C20.5122 13.4527 20.9571 13.8976 21.5059 13.8976Z" fill="white"/>
<path d="M24.0758 10.3346C23.1849 9.40941 21.917 8.92969 20.4779 8.92969H13.4192C10.4381 8.92969 8.45068 10.9171 8.45068 13.8982V20.9226C8.45068 22.3961 8.9304 23.6639 9.88984 24.589C10.815 25.48 12.0486 25.9254 13.4535 25.9254H20.4436C21.917 25.9254 23.1506 25.4457 24.0415 24.589C24.9667 23.6981 25.4464 22.4303 25.4464 20.9569V13.8982C25.4464 12.459 24.9667 11.2255 24.0758 10.3346ZM23.9387 20.9569C23.9387 22.0191 23.5618 22.8758 22.945 23.4583C22.3282 24.0408 21.4716 24.3492 20.4436 24.3492H13.4535C12.4255 24.3492 11.5688 24.0408 10.9521 23.4583C10.3353 22.8415 10.0269 21.9849 10.0269 20.9226V13.8982C10.0269 12.8702 10.3353 12.0136 10.9521 11.3968C11.5346 10.8143 12.4255 10.5059 13.4535 10.5059H20.5122C21.5401 10.5059 22.3968 10.8143 23.0135 11.4311C23.5961 12.0479 23.9387 12.9045 23.9387 13.8982V20.9569Z" fill="white"/>
</svg>
