<svg width="34" height="34" viewBox="0 0 34 34" fill="none" xmlns="http://www.w3.org/2000/svg">
<circle cx="17" cy="17" r="17" fill="#3B1788"/>
<path d="M26.6608 11.9412H23.3312C23.1953 11.9412 23.0619 11.978 22.9453 12.0478C22.8286 12.1175 22.7331 12.2176 22.6689 12.3374C22.6689 12.3374 21.3409 14.7831 20.9143 15.6068C19.7667 17.8229 19.0236 17.1272 19.0236 16.0987V12.5525C19.0236 12.2562 18.9059 11.972 18.6964 11.7625C18.4868 11.5529 18.2026 11.4352 17.9063 11.4352H15.4028C15.0619 11.4099 14.7202 11.4721 14.4101 11.616C14.0999 11.7599 13.8318 11.9807 13.631 12.2574C13.631 12.2574 14.9022 12.0518 14.9022 13.7647C14.9022 14.1894 14.9241 15.4113 14.944 16.4361C14.9478 16.5871 14.9051 16.7357 14.8218 16.8617C14.7384 16.9877 14.6184 17.0851 14.478 17.1407C14.3375 17.1964 14.1834 17.2076 14.0364 17.1728C13.8894 17.1381 13.7566 17.0591 13.6559 16.9464C12.6312 15.5213 11.7824 13.9775 11.1279 12.3488C11.0717 12.2269 10.9817 12.1238 10.8687 12.0515C10.7556 11.9793 10.6242 11.941 10.49 11.9412C9.76792 11.9412 8.32294 11.9412 7.46481 11.9412C7.3816 11.9406 7.29949 11.9602 7.22555 11.9984C7.1516 12.0366 7.08802 12.0921 7.04028 12.1603C6.99254 12.2284 6.96206 12.3072 6.95146 12.3897C6.94085 12.4722 6.95045 12.5561 6.97941 12.6341C7.89801 15.1538 11.855 23.0721 16.3716 23.0721H18.2726C18.4718 23.0721 18.6628 22.993 18.8036 22.8521C18.9445 22.7113 19.0236 22.5203 19.0236 22.3211V21.1732C19.0236 21.0292 19.0657 20.8883 19.1448 20.768C19.2239 20.6476 19.3364 20.553 19.4686 20.4959C19.6008 20.4387 19.7468 20.4214 19.8886 20.4462C20.0305 20.471 20.162 20.5368 20.2669 20.6354L22.5423 22.7732C22.7466 22.9652 23.0165 23.0721 23.2969 23.0721H26.2848C27.7259 23.0721 27.726 22.0721 26.9402 21.2983C26.3873 20.7537 24.3919 18.6505 24.3919 18.6505C24.2211 18.4735 24.1191 18.2412 24.1046 17.9956C24.0901 17.75 24.1638 17.5073 24.3126 17.3113C24.9576 16.4626 26.0125 15.0733 26.4599 14.4781C27.0714 13.6646 28.1782 11.9412 26.6608 11.9412Z" fill="white"/>
</svg>
