<svg width="16" height="16" viewBox="0 0 16 16" fill="none" xmlns="http://www.w3.org/2000/svg">
<path d="M11.7086 0.669067L9.85713 0.666016C7.77703 0.666016 6.43277 2.08274 6.43277 4.2755V5.93972H4.57116C4.4103 5.93972 4.28003 6.07368 4.28003 6.23893V8.65019C4.28003 8.81543 4.41044 8.94925 4.57116 8.94925H6.43277V15.0336C6.43277 15.1989 6.56304 15.3327 6.7239 15.3327H9.15277C9.31364 15.3327 9.4439 15.1987 9.4439 15.0336V8.94925H11.6206C11.7814 8.94925 11.9117 8.81543 11.9117 8.65019L11.9126 6.23893C11.9126 6.15959 11.8818 6.0836 11.8273 6.02745C11.7728 5.9713 11.6985 5.93972 11.6213 5.93972H9.4439V4.52894C9.4439 3.85087 9.6012 3.50664 10.4611 3.50664L11.7083 3.50618C11.8691 3.50618 11.9993 3.37221 11.9993 3.20712V0.968129C11.9993 0.803187 11.8692 0.669372 11.7086 0.669067Z" fill="#C9C9DB"/>
</svg>
