<svg width="14" height="14" viewBox="0 0 14 14" fill="none" xmlns="http://www.w3.org/2000/svg">
<path d="M13.2994 3.9208C13.2682 3.21221 13.1536 2.72506 12.9895 2.30294C12.8201 1.85487 12.5596 1.45371 12.2183 1.12023C11.8848 0.781554 11.481 0.51839 11.0381 0.351699C10.6136 0.187553 10.129 0.0729654 9.42037 0.0417236C8.70649 0.00783589 8.47986 0 6.66926 0C4.85866 0 4.63203 0.00783589 3.9208 0.0390777C3.21221 0.0703195 2.72506 0.185009 2.30304 0.349054C1.85487 0.51839 1.45371 0.778908 1.12023 1.12023C0.781554 1.45371 0.518492 1.85751 0.351699 2.3004C0.187553 2.72506 0.0729654 3.20956 0.0417236 3.91815C0.00783589 4.63203 0 4.85866 0 6.66926C0 8.47987 0.00783589 8.7065 0.0390777 9.41773C0.0703195 10.1263 0.185008 10.6135 0.349155 11.0356C0.518492 11.4837 0.781554 11.8848 1.12023 12.2183C1.45371 12.557 1.85751 12.8201 2.30039 12.9868C2.72506 13.151 3.20956 13.2656 3.91825 13.2968C4.62938 13.3281 4.85612 13.3359 6.66672 13.3359C8.47732 13.3359 8.70395 13.3281 9.41518 13.2968C10.1238 13.2656 10.6109 13.151 11.0329 12.9868C11.9292 12.6403 12.6378 11.9317 12.9843 11.0356C13.1483 10.6109 13.263 10.1263 13.2943 9.41773C13.3255 8.7065 13.3333 8.47987 13.3333 6.66926C13.3333 4.85866 13.3307 4.63203 13.2994 3.9208ZM12.0985 9.36563C12.0698 10.0169 11.9604 10.3686 11.8692 10.6031C11.6452 11.1841 11.1841 11.6452 10.6031 11.8692C10.3686 11.9604 10.0144 12.0698 9.36562 12.0984C8.66222 12.1298 8.45127 12.1375 6.67191 12.1375C4.89255 12.1375 4.67894 12.1298 3.97809 12.0984C3.32679 12.0698 2.9751 11.9604 2.74063 11.8692C2.45152 11.7624 2.18835 11.5931 1.97475 11.3716C1.75331 11.1554 1.58397 10.8948 1.47712 10.6057C1.38594 10.3713 1.27654 10.0169 1.24794 9.36827C1.2166 8.66487 1.20886 8.45381 1.20886 6.67445C1.20886 4.89509 1.2166 4.68149 1.24794 3.98074C1.27654 3.32944 1.38594 2.97774 1.47712 2.74328C1.58397 2.45406 1.75331 2.191 1.97739 1.97729C2.19354 1.75585 2.45406 1.58651 2.74328 1.47976C2.97774 1.38858 3.33209 1.27918 3.98074 1.25049C4.68413 1.21925 4.89519 1.21141 6.67445 1.21141C8.45646 1.21141 8.66741 1.21925 9.36827 1.25049C10.0196 1.27918 10.3713 1.38858 10.6057 1.47976C10.8948 1.58651 11.158 1.75585 11.3716 1.97729C11.5931 2.19354 11.7624 2.45406 11.8692 2.74328C11.9604 2.97774 12.0698 3.33199 12.0985 3.98074C12.1298 4.68414 12.1376 4.89509 12.1376 6.67445C12.1376 8.45381 12.1298 8.66223 12.0985 9.36563Z" fill="#C9C9DB"/>
<path d="M6.66922 3.24414C4.77792 3.24414 3.24341 4.77855 3.24341 6.66996C3.24341 8.56136 4.77792 10.0958 6.66922 10.0958C8.56063 10.0958 10.095 8.56136 10.095 6.66996C10.095 4.77855 8.56063 3.24414 6.66922 3.24414ZM6.66922 8.8922C5.44224 8.8922 4.44698 7.89704 4.44698 6.66996C4.44698 5.44287 5.44224 4.44771 6.66922 4.44771C7.8963 4.44771 8.89146 5.44287 8.89146 6.66996C8.89146 7.89704 7.8963 8.8922 6.66922 8.8922Z" fill="#C9C9DB"/>
<path d="M11.0303 3.10837C11.0303 3.55003 10.6722 3.90814 10.2304 3.90814C9.78878 3.90814 9.43066 3.55003 9.43066 3.10837C9.43066 2.6666 9.78878 2.30859 10.2304 2.30859C10.6722 2.30859 11.0303 2.6666 11.0303 3.10837Z" fill="#C9C9DB"/>
</svg>
