<svg width="12" height="12" viewBox="0 0 12 12" fill="none" xmlns="http://www.w3.org/2000/svg">
<path fill-rule="evenodd" clip-rule="evenodd" d="M9.33333 4C10.4379 4 11.3333 3.10457 11.3333 2C11.3333 0.895431 10.4379 0 9.33333 0C8.22876 0 7.33333 0.895431 7.33333 2C7.33333 2.09139 7.33946 2.18135 7.35133 2.26949L3.37108 4.54392C3.01306 4.20667 2.53066 4 2 4C0.89543 4 0 4.89543 0 6C0 7.10457 0.89543 8 2 8C2.51368 8 2.98212 7.80635 3.33632 7.48806L7.36695 10.3671C7.53933 11.2963 8.35415 12 9.33333 12C10.4379 12 11.3333 11.1046 11.3333 10C11.3333 8.89543 10.4379 8 9.33333 8C8.62351 8 8.00005 8.36979 7.64509 8.92722L3.9766 6.30687C3.99201 6.20683 4 6.10435 4 6C4 5.9086 3.99387 5.81864 3.982 5.73049L7.96224 3.45607C8.32026 3.79332 8.80266 4 9.33333 4ZM8.66669 10.0057C8.66672 10.0021 8.66672 9.99849 8.66669 9.9949C8.66943 9.62906 8.96684 9.33333 9.33333 9.33333C9.70152 9.33333 10 9.63181 10 10C10 10.3682 9.70152 10.6667 9.33333 10.6667C8.96703 10.6667 8.66973 10.3712 8.66669 10.0057ZM9.33333 2.66667C9.70152 2.66667 10 2.36819 10 2C10 1.63181 9.70152 1.33333 9.33333 1.33333C8.96514 1.33333 8.66667 1.63181 8.66667 2C8.66667 2.36819 8.96514 2.66667 9.33333 2.66667ZM2.66667 6C2.66667 6.36819 2.36819 6.66667 2 6.66667C1.63181 6.66667 1.33333 6.36819 1.33333 6C1.33333 5.63181 1.63181 5.33333 2 5.33333C2.36819 5.33333 2.66667 5.63181 2.66667 6Z" fill="#C9C9DB"/>
</svg>
