<svg width="14" height="8" viewBox="0 0 14 8" fill="none" xmlns="http://www.w3.org/2000/svg">
<path d="M11.6175 4.58743C11.3911 4.30743 11.4559 4.18286 11.6175 3.93257C11.6204 3.92971 13.4889 1.40057 13.6814 0.542857L13.6826 0.542286C13.7782 0.229714 13.6826 0 13.22 0H11.6892C11.2996 0 11.1199 0.197143 11.0236 0.417714C11.0236 0.417714 10.2443 2.24514 9.14173 3.42971C8.78589 3.772 8.62138 3.88171 8.42712 3.88171C8.33146 3.88171 8.1827 3.772 8.1827 3.45943V0.542286C8.1827 0.167429 8.07361 0 7.75102 0H5.3441C5.09968 0 4.95442 0.174857 4.95442 0.337714C4.95442 0.693143 5.50569 0.774857 5.56286 1.77486V3.94457C5.56286 4.42 5.47477 4.50743 5.27935 4.50743C4.759 4.50743 3.49604 2.67257 2.7476 0.572571C2.59651 0.165143 2.44892 0.000571387 2.05632 0.000571387H0.525018C0.0880864 0.000571387 0 0.197714 0 0.418286C0 0.808 0.520351 2.74571 2.41975 5.30571C3.68563 7.05314 5.46836 8 7.09008 8C8.06486 8 8.18387 7.78971 8.18387 7.428C8.18387 5.75829 8.09578 5.60057 8.58405 5.60057C8.81039 5.60057 9.20007 5.71029 10.1101 6.55314C11.1502 7.55257 11.3211 8 11.9033 8H13.434C13.8704 8 14.0915 7.78971 13.9643 7.37486C13.6732 6.50229 11.7062 4.70743 11.6175 4.58743Z" fill="#C9C9DB"/>
</svg>
